<?xml version="1.0" encoding="utf-8"?>
<!-- Generator: Adobe Illustrator 22.1.0, SVG Export Plug-In . SVG Version: 6.00 Build 0)  -->
<svg version="1.1" id="Layer_1" xmlns="http://www.w3.org/2000/svg" xmlns:xlink="http://www.w3.org/1999/xlink" x="0px" y="0px"
	 viewBox="0 0 139.5 139.5" style="enable-background:new 0 0 139.5 139.5;" xml:space="preserve">
<style type="text/css">
	.st0{fill:#264F36;}
	.st1{fill:#FFBC0D;}
</style>
<g>
	<path class="st0" d="M12.1,139.5c0,0-12.1,0-12.1-12.1V12.1C0,12.1,0,0,12.1,0h115.3c0,0,12.1,0,12.1,12.1v115.3
		c0,0,0,12.1-12.1,12.1H12.1z"/>
	<g>
		<path class="st1" d="M90,28.7c-8.2,0-15.5,10.9-20.3,27.9c-4.8-17-12.1-27.9-20.3-27.9c-14.4,0-26,36.3-26,81H35
			c0-41.5,6.5-75.2,14.5-75.2c8,0,14.5,31.1,14.5,69.4h11.6c0-38.3,6.5-69.4,14.5-69.4c8,0,14.5,33.7,14.5,75.2H116
			C116,64.9,104.4,28.7,90,28.7z"/>
		<g>
			<path class="st1" d="M121.8,103.9c-1.6,0-2.9,1.2-2.9,2.9c0,1.7,1.3,2.9,2.9,2.9c1.6,0,2.9-1.2,2.9-2.9
				C124.7,105.1,123.4,103.9,121.8,103.9z M121.8,109.2c-1.3,0-2.4-1.1-2.4-2.5c0-1.4,1-2.5,2.4-2.5c1.3,0,2.4,1.1,2.4,2.5
				C124.2,108.2,123.2,109.2,121.8,109.2z"/>
			<path class="st1" d="M123.2,106c0-0.6-0.4-1-1.2-1h-1.3v3.4h0.5V107h0.6l0.9,1.5h0.6l-1-1.5C122.8,106.9,123.2,106.7,123.2,106z
				 M121.8,106.6h-0.5v-1.1h0.7c0.4,0,0.7,0.1,0.7,0.5C122.7,106.6,122.2,106.6,121.8,106.6z"/>
		</g>
	</g>
</g>
</svg>
